<svg xmlns="http://www.w3.org/2000/svg" viewBox="0 0 32 32">
  <defs>
    <linearGradient id="bg" x1="0" y1="0" x2="1" y2="1">
      <stop offset="0" stop-color="#667eea"/>
      <stop offset="1" stop-color="#764ba2"/>
    </linearGradient>
  </defs>
  <rect width="32" height="32" rx="7" fill="url(#bg)"/>
  <g stroke="#fff" stroke-width="2.3" stroke-linecap="round" stroke-linejoin="round" fill="none">
    <path d="M22.50 5.00 L22.46 5.40 L22.33 5.80 L22.12 6.20 L21.83 6.60 L21.47 7.00 L21.03 7.40 L20.53 7.80 L19.97 8.20 L19.36 8.60 L18.70 9.00 L18.01 9.40 L17.29 9.80 L16.56 10.20 L15.81 10.60 L15.07 11.00 L14.35 11.40 L13.64 11.80 L12.97 12.20 L12.33 12.60 L11.74 13.00 L11.21 13.40 L10.74 13.80 L10.34 14.20 L10.01 14.60 L9.76 15.00 L9.60 15.40 L9.51 15.80 L9.51 16.20 L9.60 16.60 L9.76 17.00 L10.01 17.40 L10.34 17.80 L10.74 18.20 L11.21 18.60 L11.74 19.00 L12.33 19.40 L12.97 19.80 L13.64 20.20 L14.35 20.60 L15.07 21.00 L15.81 21.40 L16.56 21.80 L17.29 22.20 L18.01 22.60 L18.70 23.00 L19.36 23.40 L19.97 23.80 L20.53 24.20 L21.03 24.60 L21.47 25.00 L21.83 25.40 L22.12 25.80 L22.33 26.20 L22.46 26.60 L22.50 27.00"/>
    <path d="M9.50 5.00 L9.54 5.40 L9.67 5.80 L9.88 6.20 L10.17 6.60 L10.53 7.00 L10.97 7.40 L11.47 7.80 L12.03 8.20 L12.64 8.60 L13.30 9.00 L13.99 9.40 L14.71 9.80 L15.44 10.20 L16.19 10.60 L16.93 11.00 L17.65 11.40 L18.36 11.80 L19.03 12.20 L19.67 12.60 L20.26 13.00 L20.79 13.40 L21.26 13.80 L21.66 14.20 L21.99 14.60 L22.24 15.00 L22.40 15.40 L22.49 15.80 L22.49 16.20 L22.40 16.60 L22.24 17.00 L21.99 17.40 L21.66 17.80 L21.26 18.20 L20.79 18.60 L20.26 19.00 L19.67 19.40 L19.03 19.80 L18.36 20.20 L17.65 20.60 L16.93 21.00 L16.19 21.40 L15.44 21.80 L14.71 22.20 L13.99 22.60 L13.30 23.00 L12.64 23.40 L12.03 23.80 L11.47 24.20 L10.97 24.60 L10.53 25.00 L10.17 25.40 L9.88 25.80 L9.67 26.20 L9.54 26.60 L9.50 27.00"/>
    <path d="M12.03 7.00 H19.97"/>
    <path d="M11.00 16.00 H21.00"/>
    <path d="M12.03 25.00 H19.97"/>
  </g>
</svg>
